<svg width="34" height="31" viewBox="0 0 34 31" fill="none" xmlns="http://www.w3.org/2000/svg">
<path d="M8.5 0.25H11.5C11.9142 0.25 12.25 0.585786 12.25 1V3.75H7.75V1C7.75 0.585786 8.08579 0.25 8.5 0.25Z" fill="#48250B" stroke="#48250B" stroke-width="0.5"/>
<path d="M21.5 0.25H24.5C24.9142 0.25 25.25 0.585786 25.25 1V3.75H20.75V1C20.75 0.585786 21.0858 0.25 21.5 0.25Z" fill="#48250B" stroke="#48250B" stroke-width="0.5"/>
<path d="M29.5 3.5C31.9853 3.5 34 5.51472 34 8V26C34 28.4853 31.9853 30.5 29.5 30.5H4.5C2.01472 30.5 0 28.4853 0 26V8C0 5.51472 2.01472 3.5 4.5 3.5H29.5ZM2.5 23V26C2.5 27.1046 3.39543 28 4.5 28H7.5V23H2.5ZM10.5 23V28H15.5V23H10.5ZM18.5 23V28H23.5V23H18.5ZM26.5 23V28H29.5C30.6046 28 31.5 27.1046 31.5 26V23H26.5ZM0.595703 26.8721C0.616986 26.9674 0.641057 27.0616 0.668945 27.1543C0.641063 27.0616 0.616919 26.9674 0.595703 26.8721ZM2.5 15V20H7.5V15H2.5ZM10.5 15V20H15.5V15H10.5ZM18.5 15V20H23.5V15H18.5ZM26.5 15V20H31.5V15H26.5ZM4.5 7C3.39543 7 2.5 7.89543 2.5 9V12H7.5V7H4.5ZM10.5 7V12H15.5V7H10.5ZM18.5 7V12H23.5V7H18.5ZM26.5 7V12H31.5V9C31.5 7.89543 30.6046 7 29.5 7H26.5Z" fill="#48250B"/>
<path d="M2.5 9C2.5 7.89543 3.39543 7 4.5 7H7.5V12H2.5V9Z" fill="#48250B" fill-opacity="0.28"/>
<path d="M2.5 15H7.5V20H2.5V15Z" fill="#48250B" fill-opacity="0.28"/>
<path d="M2.5 23H7.5V28H4.5C3.39543 28 2.5 27.1046 2.5 26V23Z" fill="#48250B" fill-opacity="0.28"/>
<path d="M10.5 7H15.5V12H10.5V7Z" fill="#48250B" fill-opacity="0.28"/>
<path d="M10.5 15H15.5V20H10.5V15Z" fill="#48250B" fill-opacity="0.28"/>
<path d="M10.5 23H15.5V28H10.5V23Z" fill="#48250B" fill-opacity="0.28"/>
<path d="M18.5 7H23.5V12H18.5V7Z" fill="#48250B" fill-opacity="0.28"/>
<path d="M18.5 15H23.5V20H18.5V15Z" fill="#48250B" fill-opacity="0.28"/>
<path d="M18.5 23H23.5V28H18.5V23Z" fill="#48250B" fill-opacity="0.28"/>
<path d="M26.5 7H29.5C30.6046 7 31.5 7.89543 31.5 9V12H26.5V7Z" fill="#48250B" fill-opacity="0.28"/>
<path d="M26.5 15H31.5V20H26.5V15Z" fill="#48250B" fill-opacity="0.28"/>
<path d="M26.5 23H31.5V26C31.5 27.1046 30.6046 28 29.5 28H26.5V23Z" fill="#48250B" fill-opacity="0.28"/>
</svg>
