<svg width="34" height="31" viewBox="0 0 34 31" fill="none" xmlns="http://www.w3.org/2000/svg">
<path d="M29.5 3.75C31.8472 3.75 33.75 5.65279 33.75 8V26C33.75 28.3472 31.8472 30.25 29.5 30.25H4.5C2.15279 30.25 0.25 28.3472 0.25 26V8C0.25 5.65279 2.15279 3.75 4.5 3.75H29.5Z" fill="#FFF8F2" fill-opacity="0.28" stroke="#FFF8F2" stroke-width="0.5"/>
<path d="M8.5 0.25H11.5C11.9142 0.25 12.25 0.585786 12.25 1V3.75H7.75V1C7.75 0.585786 8.08579 0.25 8.5 0.25Z" fill="#FFF8F2" fill-opacity="0.28" stroke="#FFF8F2" stroke-width="0.5"/>
<path d="M21.5 0.25H24.5C24.9142 0.25 25.25 0.585786 25.25 1V3.75H20.75V1C20.75 0.585786 21.0858 0.25 21.5 0.25Z" fill="#FFF8F2" fill-opacity="0.28" stroke="#FFF8F2" stroke-width="0.5"/>
<path d="M4.5 7.25H7.25V11.75H2.75V9C2.75 8.09383 3.43873 7.3483 4.32129 7.25879L4.5 7.25Z" stroke="#FFF8F2" stroke-width="0.5"/>
<rect x="2.75" y="15.25" width="4.5" height="4.5" stroke="#FFF8F2" stroke-width="0.5"/>
<path d="M7.25 23.25V27.75H4.5C3.5335 27.75 2.75 26.9665 2.75 26V23.25H7.25Z" stroke="#FFF8F2" stroke-width="0.5"/>
<rect x="10.75" y="7.25" width="4.5" height="4.5" stroke="#FFF8F2" stroke-width="0.5"/>
<rect x="10.75" y="15.25" width="4.5" height="4.5" stroke="#FFF8F2" stroke-width="0.5"/>
<rect x="10.75" y="23.25" width="4.5" height="4.5" stroke="#FFF8F2" stroke-width="0.5"/>
<rect x="18.75" y="7.25" width="4.5" height="4.5" stroke="#FFF8F2" stroke-width="0.5"/>
<rect x="18.75" y="15.25" width="4.5" height="4.5" stroke="#FFF8F2" stroke-width="0.5"/>
<rect x="18.75" y="23.25" width="4.5" height="4.5" stroke="#FFF8F2" stroke-width="0.5"/>
<path d="M29.5 7.25C30.4665 7.25 31.25 8.0335 31.25 9V11.75H26.75V7.25H29.5Z" stroke="#FFF8F2" stroke-width="0.5"/>
<rect x="26.75" y="15.25" width="4.5" height="4.5" stroke="#FFF8F2" stroke-width="0.5"/>
<path d="M31.25 23.25V26C31.25 26.9665 30.4665 27.75 29.5 27.75H26.75V23.25H31.25Z" stroke="#FFF8F2" stroke-width="0.5"/>
</svg>
