<svg width="29" height="24" viewBox="0 0 29 24" fill="none" xmlns="http://www.w3.org/2000/svg">
<path d="M23.4497 22.5248C23.3435 19.9727 21.7598 17.85 17.8501 17.85L1.3501 17.85C0.797813 17.85 0.350098 17.4023 0.350098 16.85L0.3501 1.34997C0.3501 0.797688 0.797815 0.349973 1.3501 0.349973L27.3501 0.349975C27.9024 0.349976 28.3501 0.797691 28.3501 1.34998L28.3501 22.4496C28.3501 23.0019 27.9024 23.4496 27.3501 23.4496L24.3745 23.4496C23.8638 23.4496 23.4497 23.0355 23.4497 22.5248Z" fill="#48250B" fill-opacity="0.28"/>
<path d="M23.4497 22.5248L23.7997 22.5248L23.7997 22.5175L23.7994 22.5102L23.4497 22.5248ZM17.8501 17.85L17.8501 17.5L17.8501 17.85ZM1.3501 17.85L1.3501 18.2L1.3501 17.85ZM0.350098 16.85L0.700099 16.85L0.350098 16.85ZM23.4497 22.5248L23.7994 22.5102C23.7435 21.1669 23.2963 19.9031 22.3168 18.9761C21.3368 18.0487 19.8678 17.5 17.8501 17.5L17.8501 17.85L17.8501 18.2C19.7422 18.2 21.0198 18.7125 21.8356 19.4846C22.6519 20.257 23.0497 21.3306 23.1 22.5393L23.4497 22.5248ZM17.8501 17.85L17.8501 17.5L1.3501 17.5L1.3501 17.85L1.3501 18.2L17.8501 18.2L17.8501 17.85ZM0.350098 16.85L0.700099 16.85L0.7001 1.34997L0.3501 1.34997L9.92068e-05 1.34997L9.78517e-05 16.85L0.350098 16.85ZM1.3501 0.349973L1.3501 0.699974L27.3501 0.699976L27.3501 0.349975L27.3501 -2.4883e-05L1.3501 -2.71559e-05L1.3501 0.349973ZM28.3501 1.34998L28.0001 1.34998L28.0001 22.4496L28.3501 22.4496L28.7001 22.4496L28.7001 1.34998L28.3501 1.34998ZM27.3501 23.4496L27.3501 23.0996L24.3745 23.0996L24.3745 23.4496L24.3745 23.7996L27.3501 23.7996L27.3501 23.4496ZM24.3745 23.4496L24.3745 23.0996C24.0571 23.0996 23.7997 22.8422 23.7997 22.5248L23.4497 22.5248L23.0997 22.5248C23.0997 23.2288 23.6705 23.7996 24.3745 23.7996L24.3745 23.4496ZM28.3501 22.4496L28.0001 22.4496C28.0001 22.8086 27.7091 23.0996 27.3501 23.0996L27.3501 23.4496L27.3501 23.7996C28.0957 23.7996 28.7001 23.1952 28.7001 22.4496L28.3501 22.4496ZM27.3501 0.349975L27.3501 0.699976C27.7091 0.699976 28.0001 0.99099 28.0001 1.34998L28.3501 1.34998L28.7001 1.34998C28.7001 0.604391 28.0957 -2.48178e-05 27.3501 -2.4883e-05L27.3501 0.349975ZM0.3501 1.34997L0.7001 1.34997C0.7001 0.990987 0.991114 0.699974 1.3501 0.699974L1.3501 0.349973L1.3501 -2.71559e-05C0.604515 -2.72211e-05 9.9272e-05 0.604389 9.92068e-05 1.34997L0.3501 1.34997ZM1.3501 17.85L1.3501 17.5C0.991112 17.5 0.700099 17.209 0.700099 16.85L0.350098 16.85L9.78517e-05 16.85C9.77866e-05 17.5956 0.604514 18.2 1.3501 18.2L1.3501 17.85Z" fill="#48250B"/>
<path d="M4.8999 5.59961H23.7999" stroke="#48250B" stroke-width="0.7"/>
<path d="M4.8999 8.3996H23.7999" stroke="#48250B" stroke-width="0.7"/>
<path d="M4.8999 11.1996H23.7999" stroke="#48250B" stroke-width="0.7"/>
<path d="M15.3999 13.9996H23.7999" stroke="#48250B" stroke-width="0.7"/>
</svg>
