<svg width="29" height="24" viewBox="0 0 29 24" fill="none" xmlns="http://www.w3.org/2000/svg">
<path d="M27.3496 0C28.0951 6.51695e-08 28.699 0.604207 28.6992 1.34961V22.4492C28.6992 23.1948 28.0952 23.7988 27.3496 23.7988H24.374C23.6749 23.7988 23.1084 23.2364 23.1006 22.5391H23.0996C23.0492 21.3305 22.6511 20.2567 21.835 19.4844C21.0191 18.7125 19.7415 18.1992 17.8496 18.1992H1.34961C0.604025 18.1992 -6.5181e-08 17.5952 0 16.8496V1.34961C0.000212951 0.604207 0.604157 1.04153e-06 1.34961 0H27.3496ZM15.3994 13.6494V14.3496H23.7998V13.6494H15.3994ZM4.89941 10.8496V11.5498H23.7998V10.8496H4.89941ZM4.89941 8.0498V8.75H23.7998V8.0498H4.89941ZM4.89941 5.25V5.94922H23.7998V5.25H4.89941Z" fill="#48250B"/>
</svg>
