<svg width="14" height="23" viewBox="0 0 14 23" fill="none" xmlns="http://www.w3.org/2000/svg">
<path d="M13.5 11.5625C13.5 12.6671 12.5904 13.5271 11.5166 13.786C7.27836 14.8079 6.06082 19.1034 5.97363 21.835C5.97363 22.2023 5.67588 22.5 5.30859 22.5H2.5C1.39543 22.5 0.5 21.6046 0.5 20.5V2.5C0.5 1.39543 1.39543 0.5 2.5 0.5H11.5C12.6046 0.5 13.5 1.39543 13.5 2.5V11.5625Z" fill="#FFF8F2" fill-opacity="0.28"/>
<path d="M5.97363 21.835L5.47389 21.819L5.47363 21.827V21.835H5.97363ZM11.5166 13.786L11.3994 13.2999L11.5166 13.786ZM11.5166 13.786L11.3994 13.2999C9.1173 13.8502 7.64866 15.2881 6.74993 16.9292C5.8576 18.5585 5.51926 20.3973 5.47389 21.819L5.97363 21.835L6.47338 21.8509C6.51519 20.541 6.82922 18.8663 7.62701 17.4095C8.41841 15.9645 9.67767 14.7437 11.6338 14.2721L11.5166 13.786ZM5.30859 22.5V22H2.5V22.5V23H5.30859V22.5ZM0.5 20.5H1V2.5H0.5H0V20.5H0.5ZM2.5 0.5V1H11.5V0.5V0H2.5V0.5ZM13.5 2.5H13V11.5625H13.5H14V2.5H13.5ZM0.5 2.5H1C1 1.67157 1.67157 1 2.5 1V0.5V0C1.11929 0 0 1.11929 0 2.5H0.5ZM2.5 22.5V22C1.67157 22 1 21.3284 1 20.5H0.5H0C0 21.8807 1.11929 23 2.5 23V22.5ZM5.97363 21.835H5.47363C5.47363 21.9261 5.39974 22 5.30859 22V22.5V23C5.95203 23 6.47363 22.4784 6.47363 21.835H5.97363ZM11.5 0.5V1C12.3284 1 13 1.67157 13 2.5H13.5H14C14 1.11929 12.8807 0 11.5 0V0.5ZM11.5166 13.786L11.6338 14.2721C12.857 13.9771 14 12.9673 14 11.5625H13.5H13C13 12.3668 12.3238 13.077 11.3994 13.2999L11.5166 13.786Z" fill="#FFF8F2"/>
</svg>
