<svg width="93" height="38" viewBox="0 0 93 38" fill="none" xmlns="http://www.w3.org/2000/svg">
<path d="M32.0215 0.5C40.0294 0.500207 46.5215 6.992 46.5215 15V36.9424H9.12109V15C9.1211 6.99187 15.613 0.500001 23.6211 0.5H32.0215Z" fill="#48250B" fill-opacity="0.28" stroke="#48250B"/>
<path d="M5.66309 17.7421C7.59608 17.7421 9.16309 19.3091 9.16309 21.2421V36.9423H4C2.06707 36.9423 0.500105 35.3752 0.5 33.4423V21.2421C0.5 19.3091 2.067 17.7421 4 17.7421H5.66309Z" fill="#48250B" fill-opacity="0.28" stroke="#48250B"/>
<path d="M89 17.7421C90.933 17.7421 92.5 19.3091 92.5 21.2421V33.4423C92.4999 35.3752 90.9329 36.9423 89 36.9423H83.8369V21.2421C83.8369 19.3091 85.4039 17.7421 87.3369 17.7421H89Z" fill="#48250B" fill-opacity="0.28" stroke="#48250B"/>
<path d="M47.8105 17.7421L47.9902 17.747C49.8397 17.8406 51.3105 19.3694 51.3105 21.2421V36.9423H41.6895V21.2421C41.6895 19.3091 43.2565 17.7421 45.1895 17.7421H47.8105Z" stroke="#48250B"/>
<path d="M69.3794 0.5C77.3873 0.500207 83.8794 6.992 83.8794 15V36.9424H46.479V15C46.479 6.99187 52.9709 0.500001 60.979 0.5H69.3794Z" fill="#48250B" fill-opacity="0.28" stroke="#48250B"/>
</svg>
