<svg width="93" height="38" viewBox="0 0 93 38" fill="none" xmlns="http://www.w3.org/2000/svg">
<path d="M32.0215 0.500122C40.0294 0.500329 46.5215 6.99212 46.5215 15.0001V36.9425H9.12109V15.0001C9.1211 6.992 15.613 0.500123 23.6211 0.500122H32.0215Z" fill="#48250B" stroke="#48250B"/>
<path d="M5.66309 17.7422C7.59608 17.7422 9.16309 19.3093 9.16309 21.2422V36.9424H4C2.06707 36.9424 0.500105 35.3754 0.5 33.4424V21.2422C0.5 19.3093 2.067 17.7422 4 17.7422H5.66309Z" fill="#48250B" stroke="#48250B"/>
<path d="M89 17.7422C90.933 17.7422 92.5 19.3093 92.5 21.2422V33.4424C92.4999 35.3754 90.9329 36.9424 89 36.9424H83.8369V21.2422C83.8369 19.3093 85.4039 17.7422 87.3369 17.7422H89Z" fill="#48250B" stroke="#48250B"/>
<path d="M47.8105 17.7422L47.9902 17.7471C49.8397 17.8407 51.3105 19.3695 51.3105 21.2422V36.9424H41.6895V21.2422C41.6895 19.3093 43.2565 17.7422 45.1895 17.7422H47.8105Z" stroke="#48250B"/>
<path d="M69.3794 0.5C77.3873 0.500207 83.8794 6.992 83.8794 15V36.9424H46.479V15C46.479 6.99187 52.9709 0.500001 60.979 0.5H69.3794Z" fill="#48250B" stroke="#48250B"/>
</svg>
