<svg width="36" height="26" viewBox="0 0 36 26" fill="none" xmlns="http://www.w3.org/2000/svg">
<path d="M18 0.5C6.91186 0.5 1.53216 10.4911 0.577533 12.4689C0.526509 12.5741 0.5 12.6896 0.5 12.8065C0.5 12.9234 0.526509 13.0388 0.577533 13.144C1.53041 15.1219 6.9101 25.113 18 25.113C29.0899 25.113 34.4678 15.1219 35.4225 13.144C35.4735 13.0388 35.5 12.9234 35.5 12.8065C35.5 12.6896 35.4735 12.5741 35.4225 12.4689C34.4696 10.4911 29.0899 0.5 18 0.5Z" fill="#FFF8F2" fill-opacity="0.28" stroke="#FFF8F2" stroke-linecap="round" stroke-linejoin="round"/>
<path d="M18.0003 18.0806C20.9131 18.0806 23.2745 15.7192 23.2745 12.8064C23.2745 9.89351 20.9131 7.53217 18.0003 7.53217C15.0874 7.53217 12.7261 9.89351 12.7261 12.8064C12.7261 15.7192 15.0874 18.0806 18.0003 18.0806Z" fill="#FFF8F2" fill-opacity="0.28" stroke="#FFF8F2" stroke-linecap="round" stroke-linejoin="round"/>
</svg>
