<svg width="37" height="27" viewBox="0 0 37 27" fill="none" xmlns="http://www.w3.org/2000/svg">
<path fill-rule="evenodd" clip-rule="evenodd" d="M5.31074 5.50463C8.26592 2.66119 12.6176 0 18.4993 0C24.3809 0 28.7327 2.66119 31.6878 5.50463C33.7576 7.51335 35.4711 9.85852 36.7556 12.4402C37.0815 13.1136 37.0815 13.8864 36.7556 14.5581C35.4718 17.1403 33.7588 19.486 31.6895 21.4954C28.7327 24.3388 24.3809 27 18.4993 27C12.6176 27 8.26592 24.3388 5.31074 21.4954C3.24101 19.4867 1.52744 17.1415 0.243021 14.5598C0.0830832 14.2296 0 13.8676 0 13.5008C0 13.1341 0.0830832 12.7721 0.243021 12.4419C1.52677 9.85973 3.24146 7.51399 5.31074 5.50463ZM18.4993 18.5625C19.8429 18.5625 21.1314 18.0291 22.0815 17.0797C23.0316 16.1303 23.5653 14.8427 23.5653 13.5C23.5653 12.1573 23.0316 10.8697 22.0815 9.92027C21.1314 8.97087 19.8429 8.4375 18.4993 8.4375C17.1557 8.4375 15.8671 8.97087 14.9171 9.92027C13.967 10.8697 13.4333 12.1573 13.4333 13.5C13.4333 14.8427 13.967 16.1303 14.9171 17.0797C15.8671 18.0291 17.1557 18.5625 18.4993 18.5625Z" fill="#48250B"/>
</svg>
