<svg width="56" height="38" viewBox="0 0 56 38" fill="none" xmlns="http://www.w3.org/2000/svg">
<path d="M32.0215 0.5C40.0294 0.500207 46.5215 6.992 46.5215 15V36.9424H9.12109V15C9.1211 6.99187 15.613 0.500001 23.6211 0.5H32.0215Z" fill="#48250B" fill-opacity="0.28" stroke="#48250B"/>
<path d="M5.66309 17.7421C7.59608 17.7421 9.16309 19.3091 9.16309 21.2421V36.9423H4C2.06707 36.9423 0.500105 35.3752 0.5 33.4423V21.2421C0.5 19.3091 2.067 17.7421 4 17.7421H5.66309Z" fill="#48250B" fill-opacity="0.28" stroke="#48250B"/>
<path d="M50 17.7421C48.067 17.7421 46.5 19.3091 46.5 21.2421V36.9423H51.6631C53.596 36.9423 55.163 35.3752 55.1631 33.4423V21.2421C55.1631 19.3091 53.5961 17.7421 51.6631 17.7421H50Z" fill="#48250B" fill-opacity="0.28" stroke="#48250B"/>
</svg>
