<svg width="24" height="24" viewBox="0 0 24 24" fill="none" xmlns="http://www.w3.org/2000/svg">
<path d="M3.8501 22.4496C3.8501 23.0019 3.40238 23.4496 2.8501 23.4496H1.3501C0.797813 23.4496 0.350098 23.0019 0.350098 22.4496V9.75037C0.350098 9.19808 0.797813 8.75037 1.3501 8.75037H2.8501C3.40238 8.75037 3.8501 9.19808 3.8501 9.75037V22.4496ZM11.5503 4.07458C11.6564 6.62674 13.2402 8.7503 17.1499 8.75037H22.4497C23.002 8.75037 23.4497 9.19808 23.4497 9.75037V22.4496C23.4497 23.0019 23.002 23.4496 22.4497 23.4496H7.6499C7.09762 23.4496 6.6499 23.0019 6.6499 22.4496V1.34998C6.6499 0.797691 7.09762 0.349976 7.6499 0.349976H10.5503C11.1026 0.349976 11.5503 0.797691 11.5503 1.34998V4.07458Z" fill="#FFF8F2" fill-opacity="0.28"/>
<path d="M11.5503 4.07458H11.2003V4.08186L11.2006 4.08913L11.5503 4.07458ZM17.1499 8.75037L17.1499 9.10037H17.1499V8.75037ZM2.8501 23.4496V23.0996H1.3501V23.4496V23.7996H2.8501V23.4496ZM0.350098 22.4496H0.700098V9.75037H0.350098H9.76622e-05V22.4496H0.350098ZM1.3501 8.75037V9.10037H2.8501V8.75037V8.40037H1.3501V8.75037ZM3.8501 9.75037H3.5001V22.4496H3.8501H4.2001V9.75037H3.8501ZM11.5503 4.07458L11.2006 4.08913C11.2565 5.43252 11.7036 6.69653 12.6832 7.6237C13.6632 8.5513 15.1322 9.10033 17.1499 9.10037L17.1499 8.75037L17.1499 8.40037C15.2579 8.40033 13.9802 7.88755 13.1644 7.11532C12.3481 6.34266 11.9503 5.26881 11.9 4.06004L11.5503 4.07458ZM17.1499 8.75037V9.10037H22.4497V8.75037V8.40037H17.1499V8.75037ZM23.4497 9.75037H23.0997V22.4496H23.4497H23.7997V9.75037H23.4497ZM22.4497 23.4496V23.0996H7.6499V23.4496V23.7996H22.4497V23.4496ZM6.6499 22.4496H6.9999V1.34998H6.6499H6.2999V22.4496H6.6499ZM7.6499 0.349976V0.699976H10.5503V0.349976V-2.44081e-05H7.6499V0.349976ZM11.5503 1.34998H11.2003V4.07458H11.5503H11.9003V1.34998H11.5503ZM10.5503 0.349976V0.699976C10.9093 0.699976 11.2003 0.990991 11.2003 1.34998H11.5503H11.9003C11.9003 0.604391 11.2959 -2.44081e-05 10.5503 -2.44081e-05V0.349976ZM6.6499 1.34998H6.9999C6.9999 0.990991 7.29092 0.699976 7.6499 0.699976V0.349976V-2.44081e-05C6.90432 -2.44081e-05 6.2999 0.604392 6.2999 1.34998H6.6499ZM7.6499 23.4496V23.0996C7.29092 23.0996 6.9999 22.8086 6.9999 22.4496H6.6499H6.2999C6.2999 23.1952 6.90432 23.7996 7.6499 23.7996V23.4496ZM23.4497 22.4496H23.0997C23.0997 22.8086 22.8087 23.0996 22.4497 23.0996V23.4496V23.7996C23.1953 23.7996 23.7997 23.1952 23.7997 22.4496H23.4497ZM2.8501 8.75037V9.10037C3.20908 9.10037 3.5001 9.39138 3.5001 9.75037H3.8501H4.2001C4.2001 9.00478 3.59568 8.40037 2.8501 8.40037V8.75037ZM0.350098 9.75037H0.700098C0.700098 9.39138 0.991113 9.10037 1.3501 9.10037V8.75037V8.40037C0.604513 8.40037 9.76622e-05 9.00478 9.76622e-05 9.75037H0.350098ZM22.4497 8.75037V9.10037C22.8087 9.10037 23.0997 9.39138 23.0997 9.75037H23.4497H23.7997C23.7997 9.00478 23.1953 8.40037 22.4497 8.40037V8.75037ZM1.3501 23.4496V23.0996C0.991113 23.0996 0.700098 22.8086 0.700098 22.4496H0.350098H9.76622e-05C9.76622e-05 23.1952 0.604513 23.7996 1.3501 23.7996V23.4496ZM2.8501 23.4496V23.7996C3.59568 23.7996 4.2001 23.1952 4.2001 22.4496H3.8501H3.5001C3.5001 22.8086 3.20908 23.0996 2.8501 23.0996V23.4496Z" fill="#FFF8F2"/>
</svg>
