<svg width="34" height="38" viewBox="0 0 34 38" fill="none" xmlns="http://www.w3.org/2000/svg">
<path d="M3 1.35505e-06L31 1.31134e-07C32.6569 5.87108e-08 34 1.34315 34 3L33 3C33 1.89543 32.1046 1 31 1L3 1C1.89543 1 1 1.89543 1 3L1 35L1.01074 35.2041C1.11301 36.2128 1.96435 37 3 37L27 37C30.2102 37 32.8316 34.4789 32.9922 31.3086L33 31L34 31C34 34.866 30.866 38 27 38L3 38C1.34315 38 1.60232e-06 36.6569 1.5299e-06 35L1.31134e-07 3C5.74124e-07 1.34315 1.34315 1.42748e-06 3 1.35505e-06ZM34 31L33 31L33 3L34 3L34 31Z" fill="#48250B"/>
<path d="M31 0C32.6569 -4.88e-08 34 1.34315 34 3V31C34 34.866 30.866 38 27 38H3C1.34315 38 7.24233e-08 36.6569 0 35V3C1.22256e-06 1.34315 1.34315 7.24234e-08 3 0H31ZM7.25 23.5C6.97386 23.5 6.75 23.7239 6.75 24C6.75 24.2761 6.97386 24.5 7.25 24.5H27.25C27.5261 24.5 27.75 24.2761 27.75 24C27.75 23.7239 27.5261 23.5 27.25 23.5H7.25ZM7.25 18.5C6.97386 18.5 6.75 18.7239 6.75 19C6.75 19.2761 6.97386 19.5 7.25 19.5H27.25C27.5261 19.5 27.75 19.2761 27.75 19C27.75 18.7239 27.5261 18.5 27.25 18.5H7.25ZM7.25 13.5C6.97386 13.5 6.75 13.7239 6.75 14C6.75 14.2761 6.97386 14.5 7.25 14.5H27.25C27.5261 14.5 27.75 14.2761 27.75 14C27.75 13.7239 27.5261 13.5 27.25 13.5H7.25Z" fill="#48250B"/>
</svg>
