<svg width="32" height="27" viewBox="0 0 32 27" fill="none" xmlns="http://www.w3.org/2000/svg">
<mask id="path-1-inside-1_1283_4427" fill="white">
<path d="M3.05371 0C3.56922 0 3.98422 0.419659 4.02441 0.933594C4.50876 7.12374 9.68552 11.9961 16 11.9961C22.3144 11.996 27.4913 7.12368 27.9756 0.933594C28.0158 0.419744 28.4299 0.000138647 28.9453 0H31.0654C31.5814 0 32 0.418571 32 0.93457V25.9258C31.9997 26.4416 31.5813 26.8594 31.0654 26.8594H0.93457C0.418726 26.8594 0.000250929 26.4416 0 25.9258V0.93457C0 0.418571 0.418571 0 0.93457 0H3.05371Z"/>
</mask>
<path d="M3.05371 0C3.56922 0 3.98422 0.419659 4.02441 0.933594C4.50876 7.12374 9.68552 11.9961 16 11.9961C22.3144 11.996 27.4913 7.12368 27.9756 0.933594C28.0158 0.419744 28.4299 0.000138647 28.9453 0H31.0654C31.5814 0 32 0.418571 32 0.93457V25.9258C31.9997 26.4416 31.5813 26.8594 31.0654 26.8594H0.93457C0.418726 26.8594 0.000250929 26.4416 0 25.9258V0.93457C0 0.418571 0.418571 0 0.93457 0H3.05371Z" fill="#48250B" fill-opacity="0.28"/>
<path d="M4.02441 0.933594L3.02746 1.01156L3.02746 1.0116L4.02441 0.933594ZM16 11.9961V12.9961H16L16 11.9961ZM27.9756 0.933594L28.9725 1.0116L28.9725 1.01156L27.9756 0.933594ZM28.9453 0V-1L28.945 -1L28.9453 0ZM32 25.9258L33 25.9263V25.9258H32ZM0 25.9258H-1L-1 25.9263L0 25.9258ZM3.05371 0V1C3.05009 1 3.04556 0.99961 3.0406 0.998591C3.03571 0.997587 3.03135 0.996168 3.02773 0.994637C3.02054 0.991598 3.01801 0.988906 3.01863 0.989507C3.01936 0.99022 3.02162 0.992801 3.02374 0.99729C3.02569 1.00144 3.02704 1.00617 3.02746 1.01156L4.02441 0.933594L5.02137 0.855624C4.94438 -0.128846 4.13988 -1 3.05371 -1V0ZM4.02441 0.933594L3.02746 1.0116C3.5522 7.71809 9.15938 12.9961 16 12.9961V11.9961V10.9961C10.2117 10.9961 5.46531 6.5294 5.02137 0.855588L4.02441 0.933594ZM16 11.9961L16 12.9961C22.8405 12.996 28.4478 7.71804 28.9725 1.0116L27.9756 0.933594L26.9786 0.855589C26.5347 6.52932 21.7883 10.996 16 10.9961L16 11.9961ZM27.9756 0.933594L28.9725 1.01156C28.973 1.00593 28.9744 1.00105 28.9764 0.996844C28.9785 0.992303 28.9807 0.989766 28.9814 0.989143C28.9819 0.988637 28.9792 0.991433 28.9719 0.994548C28.9682 0.996115 28.9637 0.997557 28.9588 0.998575C28.9538 0.999607 28.9492 0.999999 28.9456 1L28.9453 0L28.945 -1C27.8582 -0.999708 27.0555 -0.127722 26.9786 0.855623L27.9756 0.933594ZM28.9453 0V1H31.0654V0V-1H28.9453V0ZM31.0654 0V1C31.0291 1 31 0.970856 31 0.93457H32H33C33 -0.133714 32.1337 -1 31.0654 -1V0ZM32 0.93457H31V25.9258H32H33V0.93457H32ZM32 25.9258L31 25.9253C31 25.8883 31.0299 25.8594 31.0654 25.8594V26.8594V27.8594C32.1327 27.8594 32.9995 26.9948 33 25.9263L32 25.9258ZM31.0654 26.8594V25.8594H0.93457V26.8594V27.8594H31.0654V26.8594ZM0.93457 26.8594V25.8594C0.970133 25.8594 0.999982 25.8883 1 25.9253L0 25.9258L-1 25.9263C-0.99948 26.9948 -0.132682 27.8594 0.93457 27.8594V26.8594ZM0 25.9258H1V0.93457H0H-1V25.9258H0ZM0 0.93457H1C1 0.970856 0.970856 1 0.93457 1V0V-1C-0.133714 -1 -1 -0.133714 -1 0.93457H0ZM0.93457 0V1H3.05371V0V-1H0.93457V0Z" fill="#48250B" mask="url(#path-1-inside-1_1283_4427)"/>
</svg>
