<svg width="14" height="14" viewBox="0 0 14 14" fill="none" xmlns="http://www.w3.org/2000/svg">
<path d="M12.8762 12.1725L9.74746 9.0437C10.6561 7.95397 11.1096 6.55588 11.0136 5.14029C10.9177 3.7247 10.2797 2.40059 9.2323 1.44344C8.18493 0.486288 6.80888 -0.03022 5.39039 0.00136794C3.9719 0.0329559 2.6202 0.610208 1.61648 1.61304C0.612767 2.61586 0.0343203 3.96706 0.00147868 5.38552C-0.0313629 6.80398 0.483929 8.18049 1.44016 9.2287C2.39638 10.2769 3.71992 10.9161 5.13543 11.0133C6.55093 11.1105 7.94942 10.6582 9.03996 9.75058L12.1687 12.88C12.2152 12.9264 12.2703 12.9633 12.331 12.9884C12.3917 13.0135 12.4568 13.0265 12.5225 13.0265C12.5882 13.0265 12.6532 13.0135 12.7139 12.9884C12.7746 12.9633 12.8298 12.9264 12.8762 12.88C12.9227 12.8335 12.9595 12.7783 12.9847 12.7177C13.0098 12.657 13.0227 12.5919 13.0227 12.5262C13.0227 12.4605 13.0098 12.3955 12.9847 12.3348C12.9595 12.2741 12.9227 12.2189 12.8762 12.1725ZM1.02246 5.5262C1.02246 4.63619 1.28638 3.76616 1.78085 3.02614C2.27531 2.28612 2.97812 1.70934 3.80038 1.36875C4.62265 1.02815 5.52745 0.939036 6.40037 1.11267C7.27328 1.2863 8.0751 1.71489 8.70444 2.34422C9.33378 2.97356 9.76236 3.77538 9.93599 4.6483C10.1096 5.52121 10.0205 6.42601 9.67992 7.24828C9.33932 8.07055 8.76255 8.77335 8.02253 9.26782C7.2825 9.76228 6.41248 10.0262 5.52246 10.0262C4.32939 10.0249 3.18557 9.55035 2.34194 8.70672C1.49831 7.8631 1.02378 6.71927 1.02246 5.5262Z" fill="#48250B"/>
</svg>
