<svg width="22" height="22" viewBox="0 0 22 22" fill="none" xmlns="http://www.w3.org/2000/svg">
<path d="M14.038 1.90172L13.111 2.82872L4.59 11.3487C4.013 11.9267 3.724 12.2157 3.476 12.5337C3.18339 12.9092 2.93226 13.3152 2.727 13.7447C2.554 14.1087 2.425 14.4967 2.167 15.2707L1.073 18.5517L0.804996 19.3537C0.742309 19.5407 0.733009 19.7414 0.778139 19.9333C0.82327 20.1253 0.921042 20.3008 1.06047 20.4403C1.19989 20.5797 1.37544 20.6774 1.56738 20.7226C1.75932 20.7677 1.96005 20.7584 2.147 20.6957L2.949 20.4277L6.23 19.3337C7.005 19.0757 7.392 18.9467 7.756 18.7737C8.18733 18.5684 8.591 18.3187 8.967 18.0247C9.285 17.7767 9.574 17.4877 10.151 16.9107L18.672 8.38972L19.599 7.46272C20.3364 6.72529 20.7507 5.72511 20.7507 4.68222C20.7507 3.63933 20.3364 2.63916 19.599 1.90172C18.8616 1.16429 17.8614 0.75 16.8185 0.75C15.7756 0.75 14.7754 1.16429 14.038 1.90172Z" stroke="#48250B" stroke-width="1.5"/>
<path d="M13.1112 2.8277C13.1112 2.8277 13.2272 4.7977 14.9652 6.5357C16.7032 8.2737 18.6722 8.3887 18.6722 8.3887M2.94924 20.4277L1.07324 18.5517" stroke="#48250B" stroke-opacity="0.28" stroke-width="1.5"/>
</svg>
