<svg width="34" height="33" viewBox="0 0 34 33" fill="none" xmlns="http://www.w3.org/2000/svg">
<path d="M16.4697 0.845703C16.6194 0.385048 17.2712 0.385048 17.4209 0.845703L20.7354 11.0469C20.9362 11.6649 21.5123 12.084 22.1621 12.084H32.8887C33.373 12.084 33.5745 12.7036 33.1826 12.9883L24.5049 19.293C23.9792 19.6749 23.7593 20.3518 23.96 20.9697L27.2744 31.1719C27.424 31.6325 26.8967 32.0151 26.5049 31.7305L17.8271 25.4258C17.3014 25.0438 16.5892 25.0438 16.0635 25.4258L7.38574 31.7305C6.99393 32.0151 6.46669 31.6325 6.61621 31.1719L9.93066 20.9697C10.1313 20.3518 9.9114 19.6749 9.38574 19.293L0.708008 12.9883C0.316151 12.7036 0.517592 12.084 1.00195 12.084H11.7285C12.3784 12.084 12.9545 11.6649 13.1553 11.0469L16.4697 0.845703Z" fill="#48250B" fill-opacity="0.28" stroke="#48250B"/>
</svg>
