<svg width="24" height="24" viewBox="0 0 24 24" fill="none" xmlns="http://www.w3.org/2000/svg">
<mask id="path-1-inside-1_959_5120" fill="white">
<path d="M1.91613e-06 21.918C2.01269e-06 23.0225 0.895433 23.918 2 23.918L21.918 23.918C23.0225 23.918 23.918 23.0225 23.918 21.918L23.918 19.9316C23.918 18.8271 23.0191 17.9433 21.9212 17.8219C13.6068 16.9019 7.00398 10.3053 6.07412 1.99393C5.95142 0.897266 5.06814 1.6479e-06 3.96463 1.74438e-06L2 1.91613e-06C0.895431 2.01269e-06 7.8281e-08 0.895433 1.74846e-07 2L1.91613e-06 21.918Z"/>
</mask>
<path d="M1.91613e-06 21.918C2.01269e-06 23.0225 0.895433 23.918 2 23.918L21.918 23.918C23.0225 23.918 23.918 23.0225 23.918 21.918L23.918 19.9316C23.918 18.8271 23.0191 17.9433 21.9212 17.8219C13.6068 16.9019 7.00398 10.3053 6.07412 1.99393C5.95142 0.897266 5.06814 1.6479e-06 3.96463 1.74438e-06L2 1.91613e-06C0.895431 2.01269e-06 7.8281e-08 0.895433 1.74846e-07 2L1.91613e-06 21.918Z" fill="#FFF8F2" fill-opacity="0.28"/>
<path d="M21.9212 17.8219L21.8112 18.8158L21.9212 17.8219ZM2 23.918L2 22.918L21.918 22.918L21.918 23.918L21.918 24.918L2 24.918L2 23.918ZM23.918 21.918L22.918 21.918L22.918 19.9316L23.918 19.9316L24.918 19.9316L24.918 21.918L23.918 21.918ZM21.9212 17.8219L21.8112 18.8158C13.032 17.8444 6.06217 10.8812 5.08032 2.10512L6.07412 1.99393L7.06792 1.88275C7.9458 9.72953 14.1816 15.9594 22.0312 16.8279L21.9212 17.8219ZM3.96463 1.74438e-06L3.96463 1L2 1L2 1.91613e-06L2 -0.999998L3.96463 -0.999998L3.96463 1.74438e-06ZM1.74846e-07 2L1 2L1 21.918L1.91613e-06 21.918L-0.999998 21.918L-1 2L1.74846e-07 2ZM2 1.91613e-06L2 1C1.44772 1 1 1.44772 1 2L1.74846e-07 2L-1 2C-1 0.343148 0.343145 -0.999998 2 -0.999998L2 1.91613e-06ZM6.07412 1.99393L5.08032 2.10512C5.00644 1.44476 4.4916 1 3.96463 1L3.96463 1.74438e-06L3.96463 -0.999998C5.64467 -0.999998 6.89641 0.349776 7.06792 1.88275L6.07412 1.99393ZM23.918 19.9316L22.918 19.9316C22.918 19.4042 22.4724 18.8889 21.8112 18.8158L21.9212 17.8219L22.0312 16.8279C23.5657 16.9977 24.918 18.2499 24.918 19.9316L23.918 19.9316ZM21.918 23.918L21.918 22.918C22.4703 22.918 22.918 22.4703 22.918 21.918L23.918 21.918L24.918 21.918C24.918 23.5748 23.5748 24.918 21.918 24.918L21.918 23.918ZM2 23.918L2 24.918C0.343148 24.918 -0.999998 23.5748 -0.999998 21.918L1.91613e-06 21.918L1 21.918C1 22.4703 1.44772 22.918 2 22.918L2 23.918Z" fill="#FFF8F2" mask="url(#path-1-inside-1_959_5120)"/>
</svg>
