<svg width="22" height="26" viewBox="0 0 22 26" fill="none" xmlns="http://www.w3.org/2000/svg">
<mask id="path-1-outside-1_959_5171" maskUnits="userSpaceOnUse" x="1" y="13" width="20" height="13" fill="black">
<rect fill="white" x="1" y="13" width="20" height="13"/>
<path d="M12.6045 23.9268C11.8047 25.0003 10.1963 25.0002 9.39648 23.9268L6.50098 20.04H6.5L2 14H20L15.5 20.04L12.6045 23.9268Z"/>
</mask>
<path d="M12.6045 23.9268C11.8047 25.0003 10.1963 25.0002 9.39648 23.9268L6.50098 20.04H6.5L2 14H20L15.5 20.04L12.6045 23.9268Z" fill="#48250B"/>
<path d="M12.6045 23.9268L13.0055 24.2255L13.0055 24.2255L12.6045 23.9268ZM9.39648 23.9268L8.99552 24.2255L8.99553 24.2255L9.39648 23.9268ZM6.50098 20.04L6.90194 19.7413L6.75198 19.54H6.50098V20.04ZM6.5 20.04L6.09905 20.3388L6.249 20.54H6.5V20.04ZM2 14V13.5H1.00397L1.59905 14.2987L2 14ZM20 14L20.401 14.2987L20.996 13.5H20V14ZM15.5 20.04L15.099 19.7413L15.099 19.7413L15.5 20.04ZM12.6045 23.9268L12.2035 23.628C11.6037 24.4332 10.3973 24.4332 9.79744 23.628L9.39648 23.9268L8.99553 24.2255C9.99525 25.5673 12.0057 25.5674 13.0055 24.2255L12.6045 23.9268ZM9.39648 23.9268L9.79745 23.628L6.90194 19.7413L6.50098 20.04L6.10001 20.3387L8.99552 24.2255L9.39648 23.9268ZM6.50098 20.04V19.54H6.5V20.04V20.54H6.50098V20.04ZM6.5 20.04L6.90095 19.7413L2.40095 13.7013L2 14L1.59905 14.2987L6.09905 20.3388L6.5 20.04ZM2 14V14.5H20V14V13.5H2V14ZM20 14L19.599 13.7013L15.099 19.7413L15.5 20.04L15.901 20.3388L20.401 14.2987L20 14ZM15.5 20.04L15.099 19.7413L12.2035 23.628L12.6045 23.9268L13.0055 24.2255L15.901 20.3387L15.5 20.04Z" fill="#48250B" mask="url(#path-1-outside-1_959_5171)"/>
<mask id="path-3-outside-2_959_5171" maskUnits="userSpaceOnUse" x="5" y="5" width="12" height="6" fill="black">
<rect fill="white" x="5" y="5" width="12" height="6"/>
<path d="M16 10.5C16 9.90905 15.8707 9.32389 15.6194 8.77792C15.3681 8.23196 14.9998 7.73588 14.5355 7.31802C14.0712 6.90016 13.52 6.56869 12.9134 6.34254C12.3068 6.1164 11.6566 6 11 6C10.3434 6 9.69321 6.1164 9.08658 6.34254C8.47995 6.56869 7.92876 6.90016 7.46447 7.31802C7.00017 7.73588 6.63188 8.23196 6.3806 8.77792C6.12933 9.32389 6 9.90905 6 10.5L11 10.5H16Z"/>
</mask>
<path d="M16 10.5C16 9.90905 15.8707 9.32389 15.6194 8.77792C15.3681 8.23196 14.9998 7.73588 14.5355 7.31802C14.0712 6.90016 13.52 6.56869 12.9134 6.34254C12.3068 6.1164 11.6566 6 11 6C10.3434 6 9.69321 6.1164 9.08658 6.34254C8.47995 6.56869 7.92876 6.90016 7.46447 7.31802C7.00017 7.73588 6.63188 8.23196 6.3806 8.77792C6.12933 9.32389 6 9.90905 6 10.5L11 10.5H16Z" fill="#48250B"/>
<path d="M16 10.5C16 9.90905 15.8707 9.32389 15.6194 8.77792C15.3681 8.23196 14.9998 7.73588 14.5355 7.31802C14.0712 6.90016 13.52 6.56869 12.9134 6.34254C12.3068 6.1164 11.6566 6 11 6C10.3434 6 9.69321 6.1164 9.08658 6.34254C8.47995 6.56869 7.92876 6.90016 7.46447 7.31802C7.00017 7.73588 6.63188 8.23196 6.3806 8.77792C6.12933 9.32389 6 9.90905 6 10.5L11 10.5H16Z" stroke="#48250B" mask="url(#path-3-outside-2_959_5171)"/>
<mask id="path-4-inside-3_959_5171" fill="white">
<path d="M22 11C22 8.08262 20.8411 5.28473 18.7782 3.22183C16.7153 1.15893 13.9174 2.20256e-07 11 0C8.08262 -2.20256e-07 5.28473 1.15892 3.22183 3.22182C1.15893 5.28472 4.40512e-07 8.08262 0 11L11 11H22Z"/>
</mask>
<path d="M22 11C22 8.08262 20.8411 5.28473 18.7782 3.22183C16.7153 1.15893 13.9174 2.20256e-07 11 0C8.08262 -2.20256e-07 5.28473 1.15892 3.22183 3.22182C1.15893 5.28472 4.40512e-07 8.08262 0 11L11 11H22Z" fill="#48250B" stroke="#48250B" mask="url(#path-4-inside-3_959_5171)"/>
</svg>
