<svg width="19" height="22" viewBox="0 0 19 22" fill="none" xmlns="http://www.w3.org/2000/svg">
<path d="M16.1113 0.5C17.6447 0.500113 18.4998 1.69844 18.5 2.73438V19.1504C18.4998 20.0832 17.8803 20.8248 17.1016 21.2021C16.3155 21.5831 15.3014 21.6334 14.3838 21.1484L9.5 18.5664L4.61621 21.1484C3.69858 21.6334 2.68441 21.5831 1.89844 21.2021C1.11991 20.8247 0.500183 20.0828 0.5 19.1504V2.73438C0.500244 1.69844 1.3553 0.500113 2.88867 0.5H16.1113Z" fill="#48250B" fill-opacity="0.28" stroke="#48250B"/>
<path d="M8.49693 14L5 10.6819L5.87423 9.85239L8.49693 12.341L14.1258 7L15 7.82952L8.49693 14Z" fill="#48250B"/>
</svg>
