<svg width="19" height="22" viewBox="0 0 19 22" fill="none" xmlns="http://www.w3.org/2000/svg">
<path d="M16.1113 0C17.9456 0.000114393 18.9998 1.44774 19 2.73438V19.1504C18.9998 20.3227 18.2228 21.2145 17.3193 21.6523C16.4013 22.0971 15.2192 22.1557 14.1504 21.5908L9.5 19.1318L4.84961 21.5908C3.78056 22.1558 2.59857 22.0963 1.68066 21.6514C0.777507 21.2135 0.000182884 20.3223 0 19.1504V2.73438C0.000242298 1.44774 1.05438 0.000114142 2.88867 0H16.1113ZM17.8818 19.7383C17.8854 19.7295 17.8891 19.7208 17.8926 19.7119C17.8891 19.7208 17.8854 19.7295 17.8818 19.7383ZM17.9268 19.6133C17.933 19.5935 17.9388 19.5737 17.9443 19.5537C17.9389 19.5737 17.933 19.5935 17.9268 19.6133ZM17.9629 19.4756C17.9672 19.4561 17.9721 19.4367 17.9756 19.417C17.9721 19.4367 17.9671 19.4561 17.9629 19.4756ZM8.73633 6V9.73633H5V11.2637H8.73633V15H10.2637V11.2637H14V9.73633H10.2637V6H8.73633Z" fill="#FFF8F2"/>
</svg>
