<svg width="68" height="58" viewBox="0 0 68 58" fill="none" xmlns="http://www.w3.org/2000/svg">
<path d="M6.49121 6.10352e-05C7.58648 0.000284862 8.46637 0.890492 8.55176 1.98248C9.58034 15.1371 20.5813 25.4913 34 25.4913C47.4186 25.4911 58.4186 15.137 59.4473 1.98248C59.5327 0.890422 60.4134 0.000170424 61.5088 6.10352e-05H66.0146C67.1111 0.000140827 68 0.888959 68 1.98541V55.0899C67.9999 56.1863 67.111 57.0752 66.0146 57.0753H1.98535C0.888914 57.0753 0.000105737 56.1863 0 55.0899V1.98541C0 0.88891 0.888849 6.10352e-05 1.98535 6.10352e-05H6.49121ZM14.5459 40.6895V48.8077C14.5459 49.6715 14.7495 50.4366 15.1553 51.1036C15.561 51.7664 16.1311 52.2893 16.8662 52.671C17.6015 53.0487 18.4619 53.2374 19.4463 53.2374C20.4347 53.2374 21.297 53.0486 22.0322 52.671C22.7673 52.2893 23.3374 51.7664 23.7432 51.1036C24.1489 50.4366 24.3525 49.6715 24.3525 48.8077V40.6895H22.4834V48.6573C22.4834 49.2156 22.3612 49.7117 22.1162 50.1456C21.8751 50.5795 21.5254 50.9209 21.0674 51.17C20.6134 51.4151 20.073 51.5381 19.4463 51.5381C18.8235 51.5381 18.2851 51.4151 17.8311 51.17C17.377 50.9209 17.0255 50.5795 16.7764 50.1456C16.5313 49.7117 16.4082 49.2157 16.4082 48.6573V40.6895H14.5459ZM48.3604 40.5206C47.2957 40.5206 46.3454 40.776 45.5098 41.2862C44.6741 41.7925 44.0153 42.5197 43.5332 43.4678C43.0511 44.4121 42.8096 45.5435 42.8096 46.8614C42.8096 48.1751 43.0493 49.3058 43.5273 50.254C44.0095 51.2021 44.6683 51.9312 45.5039 52.4415C46.3396 52.9477 47.2917 53.2012 48.3604 53.2012C49.0394 53.2012 49.6667 53.1013 50.2412 52.9005C50.8157 52.6996 51.3255 52.4155 51.7715 52.0499C52.2215 51.6802 52.5897 51.2426 52.875 50.7364C53.1643 50.2261 53.3595 49.6673 53.46 49.0606L51.5791 49.0547C51.5028 49.4485 51.364 49.7982 51.1631 50.1036C50.9663 50.4048 50.7256 50.6603 50.4404 50.8692C50.1552 51.0781 49.835 51.2363 49.4814 51.3448C49.132 51.4492 48.7626 51.502 48.373 51.502C47.6701 51.502 47.037 51.3251 46.4746 50.9717C45.9121 50.6182 45.468 50.0954 45.1426 49.4044C44.8212 48.7134 44.6602 47.8657 44.6602 46.8614C44.6602 45.8649 44.8211 45.0203 45.1426 44.3292C45.4679 43.6385 45.9096 43.1144 46.4678 42.7569C47.0303 42.3993 47.6677 42.2198 48.3789 42.2198C48.7726 42.2198 49.1446 42.2744 49.4941 42.3829C49.8476 42.4914 50.167 42.6524 50.4521 42.8653C50.7373 43.0782 50.978 43.3374 51.1748 43.6426C51.3717 43.948 51.5068 44.3014 51.5791 44.7032H53.46C53.3555 44.0402 53.1538 43.4519 52.8564 42.9376C52.5591 42.4192 52.1835 41.9807 51.7295 41.6231C51.2757 41.2617 50.7636 40.9886 50.1934 40.8038C49.6268 40.6149 49.0153 40.5206 48.3604 40.5206ZM5.13867 40.6895V53.0323H9.87012C10.8263 53.0323 11.6119 52.888 12.2266 52.5987C12.8413 52.3054 13.2956 51.9094 13.5889 51.4112C13.8861 50.9091 14.0341 50.3426 14.0342 49.712C14.0342 49.0731 13.9056 48.53 13.6484 48.084C13.3914 47.6384 13.0664 47.2948 12.6729 47.0538C12.2831 46.8087 11.8825 46.6764 11.4727 46.6563V46.5352C11.8503 46.4388 12.1964 46.2861 12.5098 46.0772C12.8271 45.8643 13.0807 45.583 13.2695 45.2335C13.4583 44.8799 13.5527 44.4459 13.5527 43.9317C13.5527 43.321 13.4093 42.7723 13.124 42.2862C12.8388 41.7962 12.4093 41.4083 11.835 41.1231C11.2604 40.8338 10.535 40.6895 9.65918 40.6895H5.13867ZM25.0928 40.6895V42.2921H28.9385V53.0323H30.7949V42.2921H34.6465V40.6895H25.0928ZM36.9395 40.6895L32.4971 53.0323H34.4746L35.6045 49.7657H40.4268L41.5557 53.0323H43.5332L39.0908 40.6895H36.9395ZM57.2461 40.6895L52.8037 53.0323H54.7812L55.9111 49.7657H60.7334L61.8623 53.0323H63.8398L59.3975 40.6895H57.2461ZM9.75586 47.4815C10.2537 47.4816 10.6835 47.5779 11.0449 47.7706C11.4106 47.9634 11.6918 48.2234 11.8887 48.5489C12.0855 48.8743 12.1845 49.2315 12.1846 49.6212C12.1846 50.1395 11.9912 50.5715 11.6055 50.9171C11.2198 51.2625 10.5812 51.4356 9.68945 51.4356H7.00098V47.4815H9.75586ZM38.0664 42.9317L39.8857 48.1993H36.1475L37.9697 42.9317H38.0664ZM58.373 42.9317L60.1924 48.1993H56.4541L58.2764 42.9317H58.373ZM9.54492 42.2745C10.284 42.2745 10.8319 42.4476 11.1895 42.793C11.547 43.1385 11.7265 43.566 11.7266 44.0762C11.7266 44.474 11.6257 44.82 11.4248 45.1133C11.2279 45.4025 10.9605 45.6275 10.623 45.7881C10.2896 45.9488 9.91388 46.0294 9.49609 46.0294H7.00098V42.2745H9.54492Z" fill="#FFF8F2"/>
</svg>
