<svg width="68" height="58" viewBox="0 0 68 58" fill="none" xmlns="http://www.w3.org/2000/svg">
<path d="M6.49121 0.000427246C7.58648 0.000650534 8.46637 0.890858 8.55176 1.98285C9.58038 15.1374 20.5813 25.4916 34 25.4916C47.4186 25.4916 58.4186 15.1373 59.4473 1.98285C59.5327 0.890788 60.4134 0.000536091 61.5088 0.000427246H66.0146C67.1111 0.000507041 68 0.889325 68 1.98578V55.0903C67.9999 56.1866 67.111 57.0755 66.0146 57.0756H1.98535C0.888938 57.0756 0.000145 56.1867 0 55.0903V1.98578C0 0.889276 0.888849 0.000427246 1.98535 0.000427246H6.49121ZM14.5459 40.6899V48.808C14.5459 49.6718 14.7495 50.437 15.1553 51.1039C15.561 51.7668 16.1311 52.2896 16.8662 52.6713C17.6015 53.049 18.4619 53.2377 19.4463 53.2377C20.4347 53.2377 21.2969 53.049 22.0322 52.6713C22.7674 52.2896 23.3374 51.7668 23.7432 51.1039C24.1489 50.437 24.3525 49.6718 24.3525 48.808V40.6899H22.4834V48.6567C22.4834 49.2152 22.3613 49.712 22.1162 50.1459C21.8751 50.5798 21.5254 50.9213 21.0674 51.1703C20.6134 51.4154 20.073 51.5375 19.4463 51.5375C18.8235 51.5375 18.2851 51.4154 17.8311 51.1703C17.3771 50.9213 17.0255 50.5798 16.7764 50.1459C16.5313 49.712 16.4082 49.2152 16.4082 48.6567V40.6899H14.5459ZM48.3613 40.5209C47.2966 40.5209 46.3455 40.7763 45.5098 41.2866C44.6742 41.7928 44.0153 42.5201 43.5332 43.4682C43.0512 44.4123 42.8096 45.5431 42.8096 46.8608C42.8096 48.1747 43.0492 49.3061 43.5273 50.2543C44.0095 51.2024 44.6683 51.9316 45.5039 52.4418C46.3396 52.9481 47.2925 53.2016 48.3613 53.2016C49.0402 53.2016 49.6668 53.1007 50.2412 52.8998C50.8158 52.6989 51.3265 52.4159 51.7725 52.0502C52.2223 51.6807 52.5898 51.2428 52.875 50.7368C53.1643 50.2265 53.3595 49.6677 53.46 49.061L51.5791 49.0551C51.5027 49.4488 51.3639 49.7986 51.1631 50.1039C50.9663 50.405 50.7254 50.6598 50.4404 50.8686C50.1552 51.0775 49.835 51.2367 49.4814 51.3452C49.132 51.4495 48.7626 51.5014 48.373 51.5014C47.6699 51.5014 47.0371 51.3247 46.4746 50.9711C45.9122 50.6176 45.468 50.0957 45.1426 49.4047C44.8211 48.7136 44.6602 47.8653 44.6602 46.8608C44.6602 45.8644 44.8212 45.0206 45.1426 44.3295C45.468 43.6385 45.9103 43.1138 46.4688 42.7563C47.0312 42.3989 47.6679 42.2202 48.3789 42.2202C48.7727 42.2202 49.1446 42.2748 49.4941 42.3832C49.8476 42.4917 50.1669 42.6528 50.4521 42.8657C50.7373 43.0786 50.9789 43.3377 51.1758 43.643C51.3725 43.9483 51.5068 44.3019 51.5791 44.7036H53.46C53.3555 44.0408 53.1546 43.4521 52.8574 42.9379C52.5601 42.4196 52.1835 41.9811 51.7295 41.6235C51.2756 41.2621 50.7636 40.9889 50.1934 40.8041C49.627 40.6153 49.0161 40.521 48.3613 40.5209ZM5.13867 40.6899V53.0327H9.87012C10.8263 53.0326 11.6119 52.8883 12.2266 52.5991C12.8413 52.3057 13.2956 51.9098 13.5889 51.4116C13.8862 50.9093 14.0342 50.3422 14.0342 49.7114C14.0341 49.0727 13.9055 48.5303 13.6484 48.0844C13.3914 47.6387 13.0664 47.2952 12.6729 47.0541C12.2831 46.809 11.8825 46.6758 11.4727 46.6557V46.5356C11.8503 46.4392 12.1964 46.2865 12.5098 46.0776C12.8272 45.8646 13.0807 45.5834 13.2695 45.2338C13.4583 44.8803 13.5527 44.4463 13.5527 43.9321C13.5527 43.3214 13.4102 42.7727 13.125 42.2866C12.8398 41.7964 12.4094 41.4087 11.835 41.1235C11.2604 40.8342 10.535 40.6899 9.65918 40.6899H5.13867ZM25.0938 40.6899V42.2924H28.9385V53.0327H30.7949V42.2924H34.6465V40.6899H25.0938ZM36.9395 40.6899L32.4971 53.0327H34.4746L35.6045 49.7661H40.4277L41.5557 53.0327H43.5332L39.0908 40.6899H36.9395ZM57.2461 40.6899L52.8037 53.0327H54.7812L55.9111 49.7661H60.7344L61.8623 53.0327H63.8398L59.3975 40.6899H57.2461ZM9.75586 47.4819C10.2538 47.4819 10.6835 47.5782 11.0449 47.7709C11.4104 47.9637 11.6918 48.223 11.8887 48.5483C12.0856 48.8737 12.1846 49.2318 12.1846 49.6215C12.1845 50.1398 11.9912 50.5719 11.6055 50.9174C11.2198 51.2628 10.5811 51.4359 9.68945 51.436H7.00098V47.4819H9.75586ZM38.0664 42.9311L39.8857 48.1987H36.1475L37.9697 42.9311H38.0664ZM58.373 42.9311L60.1924 48.1987H56.4541L58.2764 42.9311H58.373ZM9.54492 42.2748C10.2837 42.2749 10.8319 42.4472 11.1895 42.7924C11.5471 43.138 11.7266 43.5663 11.7266 44.0766C11.7266 44.4744 11.6257 44.8204 11.4248 45.1137C11.2279 45.4028 10.9604 45.6279 10.623 45.7885C10.2896 45.9491 9.91383 46.0297 9.49609 46.0297H7.00098V42.2748H9.54492Z" fill="#48250B"/>
</svg>
