<svg width="202" height="36" viewBox="0 0 202 36" fill="none" xmlns="http://www.w3.org/2000/svg">
<rect width="54.2428" height="35.9175" rx="2" transform="matrix(1 0 0 -1 0 35.9175)" fill="#48250B"/>
<path d="M113.175 -2.09808e-05C114.279 -2.09808e-05 115.182 0.896667 115.101 1.9982C114.624 8.41931 111.86 14.4838 107.276 19.0678C102.219 24.1248 95.3605 26.9659 88.2087 26.9659C81.0569 26.9659 74.198 24.1248 69.1409 19.0678C64.5569 14.4838 61.7938 8.41931 61.3169 1.99821C61.2351 0.896671 62.1382 -1.90735e-05 63.2428 -1.90735e-05L113.175 -2.09808e-05Z" fill="#48250B"/>
<path d="M122.175 33.918C122.175 35.0225 123.07 35.918 124.175 35.918L156.093 35.918C157.197 35.918 158.093 35.0225 158.093 33.918L158.093 28.9287C158.093 27.8241 157.194 26.9364 156.092 26.8556C142.806 25.8813 132.193 15.2794 131.202 1.99731C131.12 0.89687 130.233 2.43556e-06 129.13 2.53203e-06L124.175 2.9652e-06C123.07 3.06177e-06 122.175 0.895434 122.175 2L122.175 33.918Z" fill="#48250B"/>
<path d="M201.011 33.918C201.011 35.0225 200.115 35.918 199.011 35.918L167.093 35.918C165.988 35.918 165.093 35.0225 165.093 33.918L165.093 28.9287C165.093 27.8241 165.991 26.9364 167.093 26.8556C180.379 25.8814 190.992 15.2794 191.983 1.99731C192.065 0.896867 192.952 2.43556e-06 194.056 2.53203e-06L199.011 2.9652e-06C200.115 3.06177e-06 201.011 0.895434 201.011 2L201.011 33.918Z" fill="#48250B"/>
</svg>
